<?xml version="1.0" encoding="UTF-8"?>
<svg id="Layer_1" data-name="Layer 1" xmlns="http://www.w3.org/2000/svg" viewBox="0 0 458.6 111.92">
  <defs>
    <style>
      .cls-1 {
        fill: #e6e6e6;
      }

      .cls-2 {
        fill: #666;
      }
    </style>
  </defs>
  <g>
    <path class="cls-2" d="M13.12,83.34h-4.37v-17.49h4.37v4.37h4.37v8.75h21.86v-4.37h4.37v-8.74h-4.37v-4.37h-4.37v-4.37h-13.12v-4.37h-8.75v-4.37h-4.37v-21.86h4.37v-4.37h21.86v4.37h4.37v-4.37h4.37v4.37h4.37v17.49h-4.37v-4.37h-4.37v-8.75h-4.37v-4.37h-17.49v4.37h-4.37v4.37h4.37v8.75h8.75v4.37h13.12v4.37h4.37v4.37h4.37v21.86h-4.37v4.37h-26.23v-4.37h-4.37v4.37Z"/>
    <path class="cls-2" d="M78.7,83.34h-26.23v-4.37h8.75V26.5h-4.37v-4.37h13.12v56.84h8.74v4.37Z"/>
    <path class="cls-2" d="M113.68,83.34h-21.86v-4.37h-8.75v-13.12h-4.37v-4.37h4.37v-13.12h4.37v-4.37h8.75v-4.37h8.75v4.37h8.75v4.37h4.37v4.37h4.37v17.49h-4.37v8.75h-4.37v4.37ZM109.31,78.97v-8.75h4.37v-8.75h-4.37v-13.12h-4.37v-4.37h-8.75v4.37h-4.37v4.37h-4.37v17.49h4.37v8.75h17.49Z"/>
    <path class="cls-2" d="M144.29,105.2h-21.86v-4.37h8.75v-52.47h-4.37v-4.37h21.86v-4.37h8.75v4.37h8.75v8.75h4.37v17.49h-4.37v8.75h-8.75v-8.75h4.37v-8.75h-4.37v-13.12h-21.86v4.37h4.37v26.23h17.49v4.37h-17.49v17.49h4.37v4.37Z"/>
  </g>
  <g>
    <path class="cls-1" d="M183.4,83.34h-4.37v-17.49h4.37v4.37h4.37v8.75h21.86v-4.37h4.37v-8.74h-4.37v-4.37h-4.37v-4.37h-13.12v-4.37h-8.75v-4.37h-4.37v-21.86h4.37v-4.37h21.86v4.37h4.37v-4.37h4.37v4.37h4.37v17.49h-4.37v-4.37h-4.37v-8.75h-4.37v-4.37h-17.49v4.37h-4.37v4.37h4.37v8.75h8.74v4.37h13.12v4.37h4.37v4.37h4.37v21.86h-4.37v4.37h-26.23v-4.37h-4.37v4.37Z"/>
    <path class="cls-1" d="M240.25,78.97h8.74v4.37h-17.49v-39.35h-4.37v-4.37h4.37v-4.37h4.37v-4.37h4.37v13.12h-4.37v4.37h4.37v30.61ZM248.99,48.36h-8.74v-4.37h8.74v4.37Z"/>
    <path class="cls-1" d="M283.97,83.34h-17.49v-4.37h-4.37v-30.61h-4.37v-4.37h13.12v34.98h13.12v-4.37h4.37v-26.23h-4.37v-4.37h13.12v34.98h4.37v4.37h-13.12v-4.37h-4.37v4.37Z"/>
    <path class="cls-1" d="M336.44,74.6V26.5h-4.37v-4.37h13.12v56.84h4.37v4.37h-13.12v-4.37h-4.37v4.37h-17.49v-4.37h-4.37v-8.75h-4.37v-8.75h4.37v-13.12h4.37v-4.37h8.75v-4.37h8.74v4.37h-8.74v4.37h-4.37v4.37h-4.37v17.49h4.37v4.37h4.37v4.37h8.74v-4.37h4.37Z"/>
    <path class="cls-1" d="M380.17,83.34h-21.86v-4.37h4.37v-30.61h-4.37v-4.37h13.12v34.98h8.75v4.37ZM362.68,22.13h8.74v8.75h-8.74v-8.75Z"/>
    <path class="cls-1" d="M415.15,83.34h-21.86v-4.37h-8.75v-13.12h-4.37v-4.37h4.37v-13.12h4.37v-4.37h8.74v-4.37h8.75v4.37h8.75v4.37h4.37v4.37h4.37v17.49h-4.37v8.75h-4.37v4.37ZM410.78,78.97v-8.75h4.37v-8.75h-4.37v-13.12h-4.37v-4.37h-8.75v4.37h-4.37v4.37h-4.37v17.49h4.37v8.75h17.49Z"/>
  </g>
  <path class="cls-1" d="M423.31,26.27h-4.19v-4.19h12.58v4.19h-4.19v8.38h4.19v4.19h-8.38v-12.57ZM440.08,38.84h-4.19v-16.77h4.19v4.19h4.19v4.19h4.19v-8.38h4.19v16.77h-4.19v-4.19h-8.38v4.19Z"/>
</svg>